# xmcd CD database file
#
# Track frame offsets:
#	150
#	29972
#	61752
#	88852
#	111457
#	127335
#	136720
#	154462
#	175272
#	204112
#	231287
#	255912
#	287662
#	306292
#
# Disc length: 4453 seconds
#
# Revision: 0
# Processed by: cddbd v1.5.2PL0 Copyright (c) Steve Scherf et al.
# Submitted via: CDex 1.51
#
DISCID=cd11630e
DTITLE=GEORGE LEWIS - IN TOKYO 1963
DYEAR=2004
DGENRE=Jazz
TTITLE0=ALEXANDER'S RAGTIME BAND
TTITLE1=OVER THE WAVES
TTITLE2=ST.LOUIS BLUES
TTITLE3=SOMEBODY STOLE MY GAL
TTITLE4=JUST A CLOSER WALK WITH THEE
TTITLE5=WHAT A FRIEND WE HAVE IN JESUS
TTITLE6=YOU RASCAL YOU
TTITLE7=BURGANDY STREET BLUES
TTITLE8=MUSKRAT RAMBLE
TTITLE9=ST.JAMES INFIRMARY
TTITLE10=THE WORLD IS WAITING FOR THE SUNRISE
TTITLE11=ICE CREAM
TTITLE12=TILL WE MEET AGAIN
TTITLE13=WHEN THE SAINTS GO MARCHING IN
EXTD=YEAR: 2004
EXTT0=
EXTT1=
EXTT2=
EXTT3=
EXTT4=
EXTT5=
EXTT6=
EXTT7=
EXTT8=
EXTT9=
EXTT10=
EXTT11=
EXTT12=
EXTT13=
PLAYORDER=
